<svg xmlns="http://www.w3.org/2000/svg" viewBox="0 0 1042.8 364.29"><defs><style>.cls-1,.cls-8,.cls-9{fill:#2e3192;}.cls-1,.cls-10,.cls-11,.cls-12,.cls-13,.cls-14,.cls-16,.cls-3,.cls-4,.cls-5,.cls-6,.cls-7,.cls-8,.cls-9{fill-rule:evenodd;}.cls-10,.cls-2,.cls-5{fill:#fff;}.cls-3,.cls-4,.cls-6,.cls-7{fill:#ed1c24;}.cls-12,.cls-3{stroke:#fff;}.cls-3,.cls-4,.cls-6,.cls-8,.cls-9{stroke-miterlimit:2.61;}.cls-3{stroke-width:0.41px;}.cls-4,.cls-6{stroke:#ed1c24;}.cls-4{stroke-width:0.04px;}.cls-6{stroke-width:0.04px;}.cls-8,.cls-9{stroke:#2e3192;}.cls-8{stroke-width:0.81px;}.cls-9{stroke-width:0.81px;}.cls-10{stroke:#bdbec0;stroke-width:0.14px;}.cls-10,.cls-12{stroke-miterlimit:2.61;}.cls-11,.cls-12{fill:#06562c;}.cls-12{stroke-width:0.27px;}.cls-13,.cls-15{fill:#ec2227;}.cls-14{fill:#fcee23;}.cls-16{fill:#00aeef;}</style></defs><title>logoUTE_HSV_DTN</title><g id="Logo"><path id="HCMUTE" class="cls-1" d="M17.69,381.42V326.87H32.31V348H43.84V326.87H58.46v54.55H43.84V359.05H32.31v22.37Zm89.51-35.55H93.55a15.86,15.86,0,0,0-1.14-6.36q-1.62-3.6-5-3.6-4.23,0-5.85,5.29-1.31,4.2-1.3,12.94,0,9.81,1.14,13.33,1.55,4.9,6.33,4.91a5.72,5.72,0,0,0,5.44-2.91q1.39-2.54,1.39-8.13l12.67,1.08q0,9.12-5.36,14.59t-14.79,5.48q-12.18,0-18-8.89-4.62-7.2-4.63-19.46,0-11.79,4.55-19.07,5.85-9.27,18-9.27,10,0,15.27,5.82,4.88,5.36,4.88,14.25Zm5.52,35.55V326.87h20.49l6.34,30.63L147,326.87h20v54.55H152.36v-40.3l-10.24,40.3h-8.77l-9.26-41.68-.16,41.68Zm100.71-54.55V364.1q0,9.19-5.11,13.79t-14.87,4.6q-9.66,0-14.41-4.71t-4.75-13.68V326.87h14.62v37.85a9.22,9.22,0,0,0,1.3,5.36,5.74,5.74,0,0,0,5,2.3,5.12,5.12,0,0,0,4.87-2.61,12.21,12.21,0,0,0,1.14-5.82V326.87Zm3.42,10.57V326.87h40.77v10.57h-13v44H230v-44Zm47.92,44V326.87h36.38v10.57H279.39v11H294v10.58H279.39v11.33h21.76v11Z" transform="translate(-17.62 -18.27)"/><circle id="ECLIP_BG" class="cls-2" cx="141.61" cy="141.68" r="141.61"/><path id="ECLIP" class="cls-1" d="M159.23,18.34A141.61,141.61,0,1,1,17.62,160,141.61,141.61,0,0,1,159.23,18.34Zm0,2A139.62,139.62,0,1,0,298.85,160,139.62,139.62,0,0,0,159.23,20.33Z" transform="translate(-17.62 -18.27)"/><path id="L_HAND" class="cls-3" d="M53.52,141.87,81.63,131c2.11-.81,4.37,0,5,1.8h0c.67,1.8-.5,3.93-2.6,4.74L56,148.42c-2.1.82-4.37,0-5-1.8h0c-.68-1.8.49-3.94,2.6-4.75Zm.48,10.7c-2.4.91-3.73,3.32-3,5.36h0c.78,2,3.37,3,5.77,2l32.12-12.19c2.4-.91,3.73-3.32,3-5.35h0c-.77-2-3.36-2.95-5.76-2L54,152.57ZM54.72,164,89.22,151c2.58-1,5.36,0,6.18,2.19h0c.83,2.18-.59,4.77-3.17,5.74L57.73,172c-2.58,1-5.37,0-6.19-2.19h0c-.83-2.19.6-4.77,3.18-5.75Zm2.11,11.36,36.28-13.77c2.71-1,5.64,0,6.51,2.31h0c.87,2.3-.63,5-3.34,6L60,183.75c-2.72,1-5.64,0-6.52-2.31h0c-.88-2.3.63-5,3.34-6ZM59,187c-2.93,1.11-4.56,4.05-3.61,6.54h0a5.11,5.11,0,0,0,5.78,2.84c21,8.43,34.58,10.65,56,19.48-11.59-2.62-15.77-5.26-20.7-2.07s-4,4.35-7.45,34.57c13.66,9.5,27.32,16.88,41.42,20.84,7.18-38.5,9.84-61.58,6.6-68.24s-13.64-12.85-35.19-17.8c-9.14,3-17.41,5.31-25.07,7.44l24.92-9.46c2.93-1.11,4.56-4,3.61-6.54h0c-.94-2.49-4.1-3.61-7-2.5Z" transform="translate(-17.62 -18.27)"/><path id="R_HAND" class="cls-3" d="M265.44,141.87,237.32,131c-2.1-.81-4.37,0-5,1.8h0c-.67,1.8.49,3.93,2.59,4.74L263,148.42c2.11.82,4.38,0,5.05-1.8h0c.67-1.8-.49-3.94-2.6-4.75Zm-.49,10.7c2.4.91,3.73,3.32,3,5.36h0c-.77,2-3.36,3-5.76,2L230,147.77c-2.4-.91-3.73-3.32-3-5.35h0c.77-2,3.36-2.95,5.76-2L265,152.57ZM264.24,164,229.74,151c-2.58-1-5.36,0-6.19,2.19h0c-.83,2.18.6,4.77,3.18,5.74l34.5,13.1c2.58,1,5.36,0,6.19-2.19h0c.83-2.19-.6-4.77-3.18-5.75Zm-2.11,11.36-36.28-13.77c-2.71-1-5.64,0-6.51,2.31h0c-.88,2.3.63,5,3.34,6L259,183.75c2.71,1,5.64,0,6.51-2.31h0c.87-2.3-.63-5-3.34-6ZM260,187c2.94,1.11,4.56,4.05,3.62,6.54h0a5.1,5.1,0,0,1-5.78,2.84c-20.94,8.43-34.57,10.65-56,19.48,11.59-2.62,15.76-5.26,20.69-2.07s3.57,4.79,7,35c-13.66,9.2-26,15.56-41,20.4-7.18-38.5-9.84-61.58-6.61-68.24s13.64-12.85,35.19-17.8c9.15,3,17.42,5.31,25.08,7.44l-24.92-9.46c-2.94-1.11-4.56-4-3.62-6.54h0c.94-2.49,4.11-3.61,7-2.5Z" transform="translate(-17.62 -18.27)"/><g id="BOOK"><path class="cls-4" d="M84.11,116.2l35,68.11c32-14.66,52.36-10.49,80.88,1.91l34.19-68.3q-1.92-1.31-3.85-2.55l-.7,1.52c.81.52,1.62,1,2.42,1.59l-32.84,65.6-.16-.06-.35.78c-25.48-11-47.81-14.77-78.34-1.91l-.37-.8-.13.06-33.58-65.3,2.3-1.28-.71-1.5c-1.26.69-2.52,1.4-3.79,2.13Zm88.29-15.28a125.55,125.55,0,0,0-14,2.39c-4.92-.9-9.52-1.52-13.84-1.89,4.4.56,9,1.33,13.92,2.3Q165.78,101.92,172.4,100.92Z" transform="translate(-17.62 -18.27)"/><path class="cls-4" d="M86.57,111.25l33.82,71.64c11.3-4.76,21.48-7.24,31.11-7.92a81.86,81.86,0,0,0-29.36,7l-.54-1.33-.38.16L88.7,111.89c1.25-.74,2.53-1.45,3.82-2.12l-.63-1.54c-1.8.93-3.57,1.93-5.32,3ZM189.3,181q4.66,1.69,9.43,3.77l32.82-72c-1.65-1.21-3.34-2.35-5.08-3.4l-.64,1.55.32.2c1.13.7,2.24,1.43,3.33,2.2l-31.59,69.33-1.15-.48-.58,1.41Q192.74,182.21,189.3,181Z" transform="translate(-17.62 -18.27)"/><path class="cls-5" d="M92.27,104.8l30.77,75a83.45,83.45,0,0,1,37-6.41c12.14.64,23.95,3.74,35.25,8.09l30.83-75.5c-7.86-6.74-17.47-10.5-27.69-11.91-13.12-1.82-26.79.23-39.37,4l-.43.13-.44-.11c-20.06-4.86-43.32-6.82-61.85,4.1Q94.22,103.39,92.27,104.8Z" transform="translate(-17.62 -18.27)"/><path class="cls-6" d="M90.25,104.24l31.89,77.69c25.29-11.11,49.82-8,74,1.64l31.9-78.11c-15.49-13.95-39.86-17.94-69.52-9-28.7-7-51.6-4.91-68.29,7.77Zm2,.56q2-1.41,4-2.63c18.53-10.92,41.79-9,61.85-4.1l.44.11.43-.13c12.58-3.8,26.25-5.85,39.37-4,10.22,1.41,19.83,5.17,27.69,11.91l-30.83,75.5C184,177.08,172.14,174,160,173.34a83.45,83.45,0,0,0-37,6.41Z" transform="translate(-17.62 -18.27)"/></g><g id="FIRE"><path class="cls-7" d="M158.39,90.34c-7.57-.31-17.31-5.11-19.91-14s6.29-14.47,2.79-26.93c5.51,2,3.87,5.26,5.73,12.39,1.48-6.76-1.69-14.32,5-18.17,6.49-3.74-11.06-10.69,3.55-17.3-4.67,5.23-3.1,5.21,3.57,11.06,4.64,4.06,1.63,8.07,1.57,13.71,1.81-4.9,1.41-5.59,6.19-9.27-2.07,6.69.38,9.14.59,13.59,3.51-.61,1.15-7.27,4.67-7.88-2.81,9.79,9,21,5.92,29.63a19.68,19.68,0,0,1-19.67,13.17Zm3.45-8.28c2.17-7-2.35-12,.72-18.47,1.8-3.76-2.71-9.12-4.87-12.68.93,8.88-5.63,14.31-4.34,20.1,2.05,9.66,7.53,2.66,8.49,11Zm-18.6-21.55C140.82,66.06,140,71.38,141,74.46q3.27-.83,3.65,7.06C147.44,69.56,141,72.58,143.24,60.51Z" transform="translate(-17.62 -18.27)"/><path class="cls-8" d="M161.2,110.12a25.8,25.8,0,0,1,13.35,5.55l4-4,4.05,4-4,4a25.84,25.84,0,0,1,5.54,13.35l5.71.05c0,1.91,0,3.81,0,5.72l-5.66-.05a25.82,25.82,0,0,1-5.55,13.35l4,4.09-4.1,4-3.94-4a25.84,25.84,0,0,1-13.35,5.54c0,1.92-.07,3.83-.11,5.75l-5.73-.13.12-5.62a25.81,25.81,0,0,1-13.34-5.54l-4.19,4L134,156l4.07-3.85a25.85,25.85,0,0,1-5.55-13.35l-5.79-.21c.08-1.91.15-3.82.22-5.72l5.57.21a25.87,25.87,0,0,1,5.54-13.35l-3.92-4.28,4.23-3.86,3.74,4.09a25.8,25.8,0,0,1,13.35-5.55v-5.68h5.73v5.68Zm-2.86,6.2a19.61,19.61,0,1,0,19.6,19.61A19.65,19.65,0,0,0,158.34,116.32Z" transform="translate(-17.62 -18.27)"/><polygon class="cls-9" points="133.55 87.39 148.52 87.39 145.31 153.49 136.05 153.49 133.55 87.39"/><path class="cls-5" d="M158,67a3.79,3.79,0,0,0,.47,1c5.18,8,9.91,12.56,10.1,21.22.19,8.11-1.89,14.38-9.43,18.67-.06,0-.15-.16-.26-.15a.68.68,0,0,1-.26,0c-7.65-4.19-10.19-7.48-10-15.62.21-8.82,7-12.52,9.42-24.08C158.06,67.66,157.89,67.27,158,67Z" transform="translate(-17.62 -18.27)"/><path class="cls-1" d="M158.9,108a.55.55,0,0,1-.27,0c-7.52-3.88-10.79-7.67-10.71-15.85s7.43-12.75,9.88-24.32c.08-.34.15-.73.21-1.05,2.29,13.3,3.49,26.85.89,41.26Zm-.66-1.75c1.85-11.42,1.34-22.79-.29-34.1a35,35,0,0,1-2.78,6.63c-1.36,2.52-3.21,5.25-4.3,7.89a13.47,13.47,0,0,0-1.3,5.7C149.47,99.35,152.29,102.79,158.24,106.22Z" transform="translate(-17.62 -18.27)"/><path class="cls-1" d="M158,66.71c0,.06,0,.12,0,.19.14.36.31.72.5,1.1,5.18,8,10.07,12.56,10.26,21.22.19,8.11-2.13,14.38-9.67,18.67a.53.53,0,0,1-.25.08c2.6-14.41,1.4-28-.89-41.26Zm1.64,5.1a102.58,102.58,0,0,1,.37,34c5.37-4,7.31-9.52,7.15-16.56a19.9,19.9,0,0,0-1.73-7.78A52.94,52.94,0,0,0,159.6,71.81Z" transform="translate(-17.62 -18.27)"/></g><path id="RING" class="cls-1" d="M259.05,69.27a134.54,134.54,0,0,1,34.86,90.41c0,74.31-60.5,134.92-134.68,134.92S24.56,234,24.56,159.68A134.53,134.53,0,0,1,59.41,69.27H87.88A115.31,115.31,0,0,0,44.1,159.68C44.1,223.21,95.82,275,159.23,275s115.14-51.81,115.14-115.34a115.32,115.32,0,0,0-43.79-90.41Z" transform="translate(-17.62 -18.27)"/></g><g id="Layer_2" data-name="Layer 2"><path class="cls-5" d="M392.92,133.54,345.59,50.25l-7.79-5L336,20.93l19,11,1.54,5.22,3.24,5.4c14.24-5.72,41.38-24,52.6-7.91,11.6,16.62,39.06-2.21,53.8-7.21C479.79,22.85,507,14,518.34,32s30,9.14,60.46,2c23.11-5.38,61.63,3.74,72.9,22-7.35,3.85-18.27,8.31-24.2,12.62-23.86,17.29,11.22,49,24.26,74.39,13.41,26.14,20.89,77.53-10.29,97.92-.91,5.78-.35,32.46-13.15,37.14-17.14,60.11-72.62,104.34-138.1,104.34-79.07,0-143.56-64.49-143.56-143.56a143.2,143.2,0,0,1,46.26-105.39Z" transform="translate(-17.62 -18.27)"/><path class="cls-10" d="M334.66,45.22c-.35-8.63-.37-16.87-.06-25.51,0-.79,1.36-1.69,2-1.25L358.11,32.3l0,.23.17,10.31.58.86c11-6.45,42.61-24.76,53.57-9.05,11.6,16.63,39.06-2.2,53.8-7.2C479.79,22.85,507,14,518.34,32s30,9.13,60.46,2c23.11-5.39,61.63,3.74,72.89,22-7.34,3.85-18.26,8.31-24.19,12.61-23.86,17.29,11.21,49,24.26,74.39,13.41,26.14,20.89,77.54-10.29,97.93-1.49,15.33-3.32,26.2-7.7,35.77-.59,1.29-3.9,1.65-5.75,2.39l-.54,1.78c-18,58.68-72.81,101.53-137.26,101.53-79.07,0-143.56-64.49-143.56-143.56a143.13,143.13,0,0,1,42.9-102.18L342.51,51.66l-7.85-6.44Z" transform="translate(-17.62 -18.27)"/><path class="cls-11" d="M490.2,143.22A95.83,95.83,0,1,1,394.38,239a95.82,95.82,0,0,1,95.82-95.82Z" transform="translate(-17.62 -18.27)"/><path class="cls-5" d="M470.61,139l121.51,97.23c0,.94,0,1.88,0,2.83,0,.4,0,.8,0,1.19L466.66,139.82c1.3-.3,2.62-.59,3.95-.84Z" transform="translate(-17.62 -18.27)"/><path class="cls-5" d="M440.13,150.22l147.72,118.2c-.32,1.08-.66,2.14-1,3.2L437.23,151.91c1-.58,1.92-1.14,2.9-1.69Z" transform="translate(-17.62 -18.27)"/><path class="cls-5" d="M417.4,167.67,575.81,294.42c-.57.88-1.15,1.75-1.75,2.61L415.24,170q1.06-1.15,2.16-2.28Z" transform="translate(-17.62 -18.27)"/><path class="cls-5" d="M400.79,190,557.63,315.51c-.8.7-1.6,1.39-2.42,2.07L399.3,192.83c.48-1,1-1.88,1.49-2.81Z" transform="translate(-17.62 -18.27)"/><path class="cls-5" d="M390.54,217.45,533.13,331.54c-1.06.49-2.13,1-3.22,1.44L389.85,220.91c.21-1.16.45-2.32.69-3.46Z" transform="translate(-17.62 -18.27)"/><path class="cls-5" d="M389,251.88l110.81,88.66c-1.52.15-3.06.26-4.6.34L389.73,256.44q-.39-2.26-.69-4.56Z" transform="translate(-17.62 -18.27)"/><path class="cls-12" d="M490.22,99.53c76.78,0,139.4,62.62,139.4,139.41a138.79,138.79,0,0,1-5,36.84c-1.61.35-3.21.69-4.78,1.1a134.76,134.76,0,0,0,5.44-37.94c0-74.42-60.69-135.11-135.1-135.11a134.65,134.65,0,0,0-93.72,37.94l-2.16-3.89a138.9,138.9,0,0,1,95.88-38.35Zm133.32,180.1c-17.48,57-70.69,98.71-133.32,98.71-76.79,0-139.41-62.62-139.41-139.4a139,139,0,0,1,41.06-98.65l2.18,3.91a134.68,134.68,0,0,0-38.94,94.74c0,74.41,60.69,135.1,135.11,135.1C550,374,601,334.82,618.66,280.78l4.88-1.15Z" transform="translate(-17.62 -18.27)"/><path class="cls-12" d="M490.22,136.26a102.88,102.88,0,1,1-79.61,38l.29-.28,2.16,3.86-.25.3a98.76,98.76,0,1,0,9.59-10.53l-5.46-.43a102.38,102.38,0,0,1,73.28-30.89Z" transform="translate(-17.62 -18.27)"/><path class="cls-13" d="M355.59,44.66a28.66,28.66,0,0,0,1.79,3c8.41-4.26,42.29-25.81,53.83-9.27s39.89-2.2,54.64-7.21c13.52-4.59,39.08-13.85,50.39,4.16s31.7,9.55,62.14,2.46c23.12-5.39,54.5,2.06,67.87,17-7.35,3.86-14.09,7-20,10.94-28.57,18.88,8.7,53.18,21.74,78.59,13.42,26.13,19.77,66.26-5.17,92-17.48-22.94-38.58-36.45-80.51-22.1-23,7.32-33.64,4.78-38.68-9-4.37-11.93-20.36-15.27-38.91-7.2-12,5.2-18.08,9.14-33.75,17.8l64,115.73A94.74,94.74,0,0,1,503.21,334l-.83-1.59c-52.14-94-101.45-182.74-157.56-283.52l-6.5-5.66V24.3L354.76,34l.83,10.69Z" transform="translate(-17.62 -18.27)"/><polygon class="cls-14" points="474.23 50.83 500.74 90.63 544.48 90.82 517.25 115.61 543.41 155.54 500.07 131.06 472.5 155.54 472.94 115.61 429.74 90.82 473.36 90.63 474.23 50.83 474.23 50.83"/><path class="cls-5" d="M641.36,234.54c-.6.91-.68,4.57-1.2,5.31-7.35-14.15-15.79-23.51-37.91-28.67-17.73-2.24-33.26,3.91-35.07,5.07-.31,0-7.15,1.47-9.21,2.09-15.4,4.66-29.24,1.53-33.85-5.67-4-6.23-2.59-14-17.53-15.41-18-1.75-38.72,13.55-51.25,20.62L518,330.77c-1,.31-2,.59-3,.86L451,215.9c15.67-8.66,21.77-12.6,33.75-17.8,18.55-8.07,34.54-4.73,38.91,7.2,5,13.76,19.54,14.77,42.54,7.4,35.09-11.25,58.74-4.78,75.2,21.84Z" transform="translate(-17.62 -18.27)"/><polygon class="cls-5" points="469.64 257.01 475.32 267.43 472.62 268.62 467.89 260.08 469.64 257.01 469.64 257.01"/><polygon class="cls-5" points="535.73 258.87 495.23 262.98 486.38 264.07 474.33 271.81 469.33 262.84 466.19 266.36 460.16 269.87 462.51 274.02 452.63 274.41 444.25 271.63 443.46 265.23 436.53 261.87 433.46 257.34 432.9 253.36 427.84 252.62 426.39 248.56 429.32 241.46 425.48 238.17 424.36 233.3 426.33 229.96 430.29 227.83 431.85 226.98 441.03 226.98 444.23 215.51 447.79 213.59 462.21 209.16 466.23 209.77 487.24 222.51 489.81 224.87 525.89 216.15 551.93 206.76 571.66 199.07 602.94 236.92 597.11 250.93 587.4 253.4 535.73 258.87 535.73 258.87"/><path class="cls-15" d="M452.35,246.84H452c-1.56-.16-5.34,2-6.46,3.15a3.45,3.45,0,0,0-.81,2.24c-.14,2.73,1.31,3.94,3.08,5.64a39.69,39.69,0,0,1,5.31-.19c1.06,0,2.12,0,3.17,0l-.06-.71h0l0-7.86c-.09-3.51-.43-2.58-3.88-2.23Zm7.48.06,4-.28,1.22.37,1.95,1.48.75.57,0,.94-.16,4.92-1.77-1.06-.52-4.41-1.79-1.13-3.66.25,0,1.27c0,.41.05.91.08,1.49l.07,6.2a12.71,12.71,0,0,0,1.2.78l0,0A5.48,5.48,0,0,0,463,259l.31,0h.36c1.9-.09,3.3-.15,4.64-1.17a17.76,17.76,0,0,0,3-4.09l1.7-4.65c.07-.58.19-1.19.34-1.89l-.26-5.68,2.18-.22h0c.41.73,1,1.78,1.12,1.93,2.39.88,5.38.81,7.24,1.13a4.23,4.23,0,0,1-2.27,2.39c-2-.14-3,.16-3.93-.33a38.38,38.38,0,0,0,3.55,8.33c1.58,3.06,3.93,5.41,7.56,8.31l5.4,3.31-.46,1.75-4.81-1.28c-.18.78-.5,1.55-.73,2.25a4.91,4.91,0,0,1-.84,1.6,50.83,50.83,0,0,1-6.12,6.76c-.26.22-.48.41-.6.5h0l0,0h0l-.38.25A88.62,88.62,0,0,1,465.2,284a4.87,4.87,0,0,0-.68.36,3,3,0,0,0-.52.41c-.56.55-.73,1-.69,1.08.6,1.48.73,2.48,1.35,3.06a3.13,3.13,0,0,0,1.93,1.1c6.94-1,11.77-3.88,18.43-7.37a43.86,43.86,0,0,0,4.66-6c.71,1.86.57,2.28.95,3.31-1.37,2.38-4,5.57-5.25,6.05a7.5,7.5,0,0,1-1.58,1.23c-2.57,1.66-8,3.81-10.5,4.78a51,51,0,0,0,6.3-.73c1.1-.18,3.37-1.49,4.62-1.95h0l.71,2,.53,1.44h0a24.22,24.22,0,0,1-2.65.81c-.95.24-1.94.45-2.95.61-5.15.82-10,.68-13.77-1a6,6,0,0,1-3.93-1.65c-1.85-1.75-3.42-4.71-2.47-7.27-.5-.08-2.2-.19-2.65-.33a9.16,9.16,0,0,1-4.75-3.2c-1.48-1.93-3.66-5.23-1.85-7.19-1.91-.11-3.38,0-4.55-1.11-2.25-2.16-4.56-6.24-4.1-9.54.2-1.43.92-2.05,2.5-3.37l-.73-.7a9,9,0,0,1-2.49-6.81c.5-2.45.66-3.35,1.82-4.56,2.2-1.74,6.62-4.42,9.23-4.26l4.23-.43c.05-.71.12-1.4.2-2.06h0c.39-3.17,1.5-6.69,4.33-8.47h0a25.64,25.64,0,0,1,2.3-1.23c5.31-2.52,15.67-7.07,21.25-5.69,9.12,2.26,16.75,9,24,14.69a4.06,4.06,0,0,1,.9,1l44.57-13.76a40.88,40.88,0,0,1,11.83,1.68l-55.56,15.32c.08,1.42-.05,2.88.1,4.06a23.84,23.84,0,0,0,.39,2.37l-2.39.56a25.7,25.7,0,0,1-.45-2.75c-.23-1.73-1.55-4.61-2.85-5.63-6.1-4.79-13.41-11.7-21.1-13.61-4.93-1.22-14.38,2.79-19.11,5a18.59,18.59,0,0,0-1.93,1h0a6.25,6.25,0,0,0-2.28,3.79c-.09.34-.16.69-.23,1s-.11.66-.15,1h0c-.17,1.37-.27,2.86-.31,4.38h.07q0,.43-.09.9v.48ZM562,224.76l21.44-6.61,4,4.8-16.08,4.43a31.36,31.36,0,0,0-9.4-2.62ZM458.44,260.82c-3.57.51-7.15.17-10.67.69-1.61.14-2.25,1.87-2.37,2.71.7,3.56,1.94,6.29,6.11,5.36,3.77-.37,16.48-1.75,20.06-3.49,1.28-.47,5.13-4.12,6.19-5.66.91-1.07-3.21-5.21-3.26-5.34l-.44.12c-1.48,3.5-1.69,4.56-5.07,5.93h0c-4.34,1.76-6.24,2.57-10.55-.33Zm35.48,26.61c2.55-.89,9.37-3.87,10.87-5.78l.14-.16c1.09-1.09,2.22-1.15,4-1.23.59,0,1.28-.06,2.14-.17h0c25.31-2.69,51.86-5.66,76.63-8.88-2.68,2.05-3.11,3.91-9.92,6.84h0c-6.49.6-14.13,1.11-26.56,2.36-17.42,1.74-30.53,2.17-39.72,3.28h0c-.9.11-1.71.15-2.4.19a7.27,7.27,0,0,0-1.53.14c-2.06,2.58-8.73,5.2-12,6.35l-1.63-2.94Zm-9.49-23c-.8-.68-1.53-2.17-2.21-2.84-1.52.9-5,5.09-6.85,6.17a7.86,7.86,0,0,1-2.49,1.53A121.17,121.17,0,0,1,454.13,273c-1.9,1.5-.45,3,1,5.59,1.5,1.95,4.05,2,6.37,1.87,4.69-1.31,14.41-3.46,18.13-6.57a41.52,41.52,0,0,0,5.28-5.6l.1-.13a1.12,1.12,0,0,0,.24-.46,3,3,0,0,0-.11-1.91,4.65,4.65,0,0,0-.75-1.3Z" transform="translate(-17.62 -18.27)"/><path class="cls-15" d="M389,159.7l6.26,4.54.9-1.24,1.23.9-.9,1.24,6.26,4.54L400,173.57a8.89,8.89,0,0,1-1.84,2q-2.13,1.53-5.47.36a13.77,13.77,0,0,1-3.44-1.88q-3.93-2.87-4.41-5.86a5.09,5.09,0,0,1,.21-2.57,7.29,7.29,0,0,1,1.08-1.87l3-4.06Zm.54,2.67-1.74,2.4a5.4,5.4,0,0,0-1.1,2.34,3.55,3.55,0,0,0,.65,2.45,11.45,11.45,0,0,0,2.94,3q4,2.9,6.4,1.53a6.33,6.33,0,0,0,1.64-1.7l1.71-2.36-4.63-3.37-2.26,3.11-1.24-.9,2.26-3.11-4.63-3.36Zm-1.64,13.47a11.51,11.51,0,0,1,4.51,4.33,6,6,0,0,1-2.78,8.42,7.3,7.3,0,0,1-3.68.5,11.73,11.73,0,0,1-4.53-1.6,10.25,10.25,0,0,1-4.47-4.57,5.94,5.94,0,0,1,5-8.54,10.06,10.06,0,0,1,5.94,1.46Zm-1,1.63a7.58,7.58,0,0,0-4.91-1.24,4.19,4.19,0,0,0-3.19,2.05,4.06,4.06,0,0,0,.14,4.42,9.45,9.45,0,0,0,3.45,3.17,10.07,10.07,0,0,0,3.74,1.34,4.82,4.82,0,0,0,2.59-.32,4.2,4.2,0,0,0,1.79-6.24,10.14,10.14,0,0,0-3.61-3.18Zm-13.22,7.36,13.74,11.33-.74,1.84-17.89-1.08.79-1.95,5.38.42L377.2,190l-4.2-3.35.74-1.82Zm5,6.34-1.77,4.38,4.91.42c1.4.12,2.61.26,3.63.41a26.33,26.33,0,0,1-2.73-1.92l-4-3.29Zm8.84,7.86L388,198l3.67-1.54-.79,2-3.31.64Zm-19.41-.2,16.33,4.68-.52,1.82-14.84,3.36,12.82,3.68-.48,1.69-16.33-4.68.51-1.81,14.86-3.35-12.84-3.69.49-1.7Zm-5.22,21.94,14.84,2.09.64-4.55,2,.28-1.53,10.94-2-.28.64-4.57-14.84-2.08.26-1.83Zm-.88,9.49,17,.6-.07,1.84-7-.24-.25,7.23,7,.25-.07,1.84-17-.59.07-1.85,8,.28.25-7.24-8-.27.07-1.85Zm-.29,13.43,17.33,4.16.14,2-16.56,6.87-.14-2.1,5-2-.41-5.8-5.24-1.17-.14-2Zm7.25,3.53.33,4.7,4.59-1.77c1.31-.5,2.46-.91,3.44-1.23a24.88,24.88,0,0,1-3.29-.52L369,247.22Zm-5.78,11.69,16.73-3,.33,1.87-11.86,9.52L381.54,265l.31,1.73-16.73,3-.33-1.85,11.88-9.53-13.15,2.32-.31-1.75Zm3.2,14.48,16.16-5.25.57,1.75-6.64,2.16,2.24,6.89,6.64-2.16.57,1.75-16.16,5.25-.57-1.75,7.62-2.47-2.24-6.89L367,275.14l-.57-1.75Zm6.44,18.14L388,283.82l.86,1.68-8.56,12.58L392.17,292l.8,1.57-15.14,7.71-.85-1.68,8.57-12.58-11.9,6.06-.8-1.58ZM380,305.1l14.41-9,1,1.56-14.41,9-1-1.57Zm3.28,4.91,13.92-9.74,5.77,8.25-1.64,1.15-4.72-6.74-4.26,3,4.42,6.31-1.63,1.15-4.42-6.32-4.74,3.32,4.9,7-1.64,1.15-6-8.52Zm20.24-7-1.29,3.12-.7-1,.61-2.28-2.34-.19-.7-1,3.38-.14,1,1.48Zm-12.1,18,13-10.92,1.21,1.45-5.51,14.18,10.22-8.57,1.13,1.34-13,10.93L397.23,328l5.52-14.19-10.23,8.59L391.38,321Zm24.8,15.67,1.08,1.61a8.34,8.34,0,0,1-4,1.92,5.23,5.23,0,0,1-4.16-1.22c-2-1.62-2.61-3.81-1.81-6.56a12.6,12.6,0,0,1,2.41-4.4q3.5-4.31,7.36-3.93a6,6,0,0,1,3.21,1.33,5,5,0,0,1,1.94,3.4,7.2,7.2,0,0,1-.78,3.91l-1.73-.73q1.5-3.34-.66-5.1a4.11,4.11,0,0,0-5-.27,10.27,10.27,0,0,0-2.87,2.58,10.6,10.6,0,0,0-2.22,4.11,3.81,3.81,0,0,0,1.32,4.15,3.49,3.49,0,0,0,3,.74,6.49,6.49,0,0,0,2.85-1.54Zm4.26.31a11.55,11.55,0,0,1,4.57-4.28,6,6,0,0,1,8.25,3.22,7.23,7.23,0,0,1,.31,3.7,11.65,11.65,0,0,1-1.83,4.44,10.27,10.27,0,0,1-4.8,4.23,6,6,0,0,1-8.27-5.45,10,10,0,0,1,1.77-5.86Zm1.58,1.06a7.6,7.6,0,0,0-1.5,4.85,4.18,4.18,0,0,0,1.89,3.29,4,4,0,0,0,4.41.09,9.48,9.48,0,0,0,3.35-3.28,10.31,10.31,0,0,0,1.54-3.67,4.86,4.86,0,0,0-.19-2.6,4,4,0,0,0-1.61-2,4.08,4.08,0,0,0-4.53-.08,10.44,10.44,0,0,0-3.36,3.44Zm11.47-7.41,0,3.38-1-.67-.29-2.34-2.24.7-1-.66,3.08-1.4,1.52,1Zm-14.87,19.94,1.31-2,1.43.93-1.31,2-1.43-.93Zm11.15,2,7.18-15.4,1.72.8,1,15.19,5.63-12.09,1.6.74-7.18,15.4-1.71-.8-1-15.19-5.64,12.1-1.61-.75Zm22.16,2.12.65-1.89,5.58,1.92-2.05,6a8.26,8.26,0,0,1-6.34.63,6.43,6.43,0,0,1-4.54-5.8,11,11,0,0,1,.66-4.75,12.22,12.22,0,0,1,2.14-3.9,6.9,6.9,0,0,1,3.65-2.44,6.44,6.44,0,0,1,3.71.24,5.25,5.25,0,0,1,3.61,3.53,7.83,7.83,0,0,1,.11,3.08h-1.75a4.45,4.45,0,0,0-1-3.8,4.22,4.22,0,0,0-1.64-1,4.5,4.5,0,0,0-5.11,1.43,9.4,9.4,0,0,0-1.88,3.37,8.64,8.64,0,0,0-.47,4.75,4.41,4.41,0,0,0,3.11,3.35,5.54,5.54,0,0,0,2.24.25,5.46,5.46,0,0,0,2.16-.59l1-3-3.87-1.33Zm11.55,4.42,1.75.15a4,4,0,0,0,1.34,3.77,4.41,4.41,0,0,0,1.94.86,3.87,3.87,0,0,0,2.49-.23,2.53,2.53,0,0,0,1.46-1.95,2.39,2.39,0,0,0-.87-2.44,17.59,17.59,0,0,0-2.64-1.55,13,13,0,0,1-2.15-1.34,4,4,0,0,1-1.35-2.07,4.8,4.8,0,0,1,1.95-5.21,5,5,0,0,1,3.7-.55,4.74,4.74,0,0,1,4,3.2,5.45,5.45,0,0,1,.17,2.78l-1.77-.18q.34-3.25-2.7-3.84a3.89,3.89,0,0,0-2.28.13,2.18,2.18,0,0,0-1.35,1.72,2.1,2.1,0,0,0,.69,2.11,9.47,9.47,0,0,0,2,1.22,17.17,17.17,0,0,1,2.65,1.52,4.43,4.43,0,0,1,1.72,4.65,5.25,5.25,0,0,1-1.13,2.43,4.57,4.57,0,0,1-2.2,1.48,6,6,0,0,1-2.93.09,5.53,5.53,0,0,1-3.75-2.32,5.73,5.73,0,0,1-.76-4.43Zm11.63,7.56,6.81-16.46,2,.18,4.2,17.42-2.09-.18-1.17-5.27-5.8-.51-2,5-1.95-.17Zm4.61-6.6,4.7.41-1-4.81c-.3-1.37-.52-2.57-.68-3.59a24.9,24.9,0,0,1-1,3.16l-2,4.83ZM482.54,349c.12-1.36,2.26-2,1.35-3.14a1,1,0,0,0-.71-.39c-.65-.05-1.09.3-1.33,1.06l-.89-.08c.13-1.5,1.19-2.46,3-2,1.16.29,1.83,1,1.64,2.17-.16,1-1.6,1.23-2,2.43l-1.09-.05Zm7.83,18.56-.59-17,1.89-.06,7.78,13.07L499,350.26l1.76-.06.59,17-1.88.07-7.78-13.09.46,13.34-1.77.06Zm19.32-1.42-3.24-16.68,1.81-.35,1.33,6.85,7.11-1.38-1.33-6.85,1.81-.35,3.24,16.68-1.81.35-1.53-7.86L510,357.93l1.53,7.86-1.81.35Zm11.39-10.71a11.4,11.4,0,0,1-.57-6.22,6,6,0,0,1,7.62-4.53,7.27,7.27,0,0,1,3.11,2,11.71,11.71,0,0,1,2.37,4.19,10.24,10.24,0,0,1,.38,6.38,5.95,5.95,0,0,1-9.39,3.15,9.93,9.93,0,0,1-3.52-5Zm1.8-.58a7.63,7.63,0,0,0,2.9,4.16,4.18,4.18,0,0,0,3.75.54,4,4,0,0,0,2.79-3.43,9.36,9.36,0,0,0-.52-4.65,10.3,10.3,0,0,0-1.95-3.47,4.74,4.74,0,0,0-2.16-1.45,4.19,4.19,0,0,0-5.45,3.53,10.42,10.42,0,0,0,.64,4.77Zm1.22-13.61,2.65,2.11-1.15.4-2-1.22-.83,2.2-1.14.39.79-3.29,1.71-.59Zm3.61-.52-1.09.38-3.57-1.76,2-.69,2.66,2.07Zm21.6,5.61,1.9-.37a8.37,8.37,0,0,1,.22,4.42,5.23,5.23,0,0,1-2.75,3.35q-3.42,1.83-6.75-.89a12.67,12.67,0,0,1-3.11-3.94q-2.6-4.89-.74-8.31a6,6,0,0,1,2.49-2.44,5,5,0,0,1,3.88-.45,7.12,7.12,0,0,1,3.29,2.24l-1.35,1.31q-2.49-2.7-4.95-1.38a4.11,4.11,0,0,0-2.2,4.48,12.58,12.58,0,0,0,4.17,7.3,3.81,3.81,0,0,0,4.34.4,3.48,3.48,0,0,0,1.87-2.5,6.49,6.49,0,0,0-.31-3.22Zm7.19,2.9L547.25,335l1.55-1,3.8,5.85,6.07-3.94-3.8-5.85,1.55-1,9.25,14.25-1.55,1-4.36-6.72-6.07,3.95,4.36,6.71-1.55,1Zm12.43-8.65-10.69-13.21,1.44-1.16,10.69,13.21-1.44,1.16ZM559,321.14l-.46,4.46-1,.81-.38-3.77,1.85-1.5ZM577,334l-12.43-11.59,1.89-2,13.32,7L578.32,325,572,314.54l1.69-1.81,12.42,11.59-1.21,1.29-10.4-9.7,7.64,12.67L581,329.79l-13.33-6.91,10.58,9.86L577,334Zm12-12.75-13.39-10.46,1.13-1.45,13.39,10.46L589,321.29Zm3.53-4.47-13.91-9.75,1.08-1.54,15.13,1.65-10.93-7.65,1-1.44,13.92,9.74-1.08,1.54-15.14-1.66,10.94,7.66-1,1.45ZM601,304.57l-15.14-7.72.84-1.64,6.22,3.17,3.28-6.45L590,288.76l.83-1.64L606,294.83l-.83,1.64L598,292.84l-3.29,6.45,7.14,3.64-.84,1.64Z" transform="translate(-17.62 -18.27)"/><path class="cls-15" d="M395.22,163.74l.69-1,.21-.29.29.21,1.24.9.29.21-.22.29-.68.95,6,4.33.29.21-.21.29-2.83,3.9a14.86,14.86,0,0,1-1,1.24,6.23,6.23,0,0,1-.93.84h0a4.94,4.94,0,0,1-2.61.91,7.87,7.87,0,0,1-3.18-.51,12.92,12.92,0,0,1-1.73-.78,16.83,16.83,0,0,1-1.8-1.15h0c-.37-.27-.72-.54-1.05-.82s-.63-.54-.92-.82a8.25,8.25,0,0,1-2.58-4.44v0h0c0-.12,0-.25-.05-.39s0-.26,0-.39a5.45,5.45,0,0,1,.3-2h0a1.78,1.78,0,0,1,.09-.23,2.56,2.56,0,0,1,.11-.24,9.51,9.51,0,0,1,.93-1.49l2.95-4.06.21-.3,6.26,4.55Zm-.14.79-6-4.33L386.38,164a9.16,9.16,0,0,0-.87,1.37c0,.08-.07.14-.09.21a1.34,1.34,0,0,0-.07.18h0a5,5,0,0,0-.27,1.71c0,.11,0,.22,0,.34s0,.22,0,.34h0v0a7.43,7.43,0,0,0,2.38,4,11.41,11.41,0,0,0,.87.79c.31.27.65.53,1,.79h0a15,15,0,0,0,1.73,1.1,9.55,9.55,0,0,0,1.62.73,7.4,7.4,0,0,0,2.9.48,4.23,4.23,0,0,0,2.23-.79h0a6.41,6.41,0,0,0,.81-.74c.29-.33.61-.72.95-1.19l2.62-3.6-6-4.33-.29-.21.21-.29.69-1-.65-.48-.69.95-.21.29-.3-.21Zm-5.42-1.66L388.13,165a5.12,5.12,0,0,0-1,2.18h0a2.64,2.64,0,0,0,0,.28c0,.1,0,.2,0,.3h0a3.66,3.66,0,0,0,.61,1.61h0c.1.15.19.28.3.42l.32.42a12.47,12.47,0,0,0,2.24,2h0c.37.27.73.51,1.07.71a10,10,0,0,0,1,.55c1.58.76,2.9.84,3.94.25a3,3,0,0,0,.67-.56,10.58,10.58,0,0,0,.86-1l1.5-2.08-4.05-2.94-2,2.82-.21.29L393,170l-1.24-.9-.29-.21.21-.29,2-2.82-4-2.94Zm-2.11,1.69,1.74-2.4.21-.29.29.21,4.63,3.36.29.21-.21.29-2.05,2.82.66.48,2.05-2.82.21-.29.29.21,4.63,3.37.29.21-.21.29-1.71,2.36a12.32,12.32,0,0,1-.92,1.12,3.63,3.63,0,0,1-.84.68c-1.25.72-2.79.64-4.6-.23a10,10,0,0,1-1.06-.57c-.36-.23-.73-.47-1.11-.75h0a13.21,13.21,0,0,1-2.37-2.16l-.35-.45c-.11-.15-.22-.3-.31-.45h0a4.33,4.33,0,0,1-.72-1.93h0a2.48,2.48,0,0,1,0-.38,2.22,2.22,0,0,1,0-.37h0a5.67,5.67,0,0,1,1.17-2.5Zm.57,11h0c.3.18.59.35.86.53s.54.37.8.57h0a10.86,10.86,0,0,1,3,3.37h0a6.55,6.55,0,0,1,.86,3.17,6.33,6.33,0,0,1-.91,3.14h0c-.1.17-.2.33-.3.47a5.37,5.37,0,0,1-.35.45,6,6,0,0,1-2.26,1.68h0l-.49.19a3.8,3.8,0,0,1-.51.15,7.84,7.84,0,0,1-2.84.18h0a9.31,9.31,0,0,1-2.3-.53,13.65,13.65,0,0,1-2.38-1.11h0c-.31-.18-.61-.37-.9-.56s-.56-.39-.82-.59a9.56,9.56,0,0,1-2.9-3.58l0,0h0c-.12-.28-.23-.57-.32-.85a7,7,0,0,1-.21-.85,6,6,0,0,1,.77-4.18h0a5.47,5.47,0,0,1,.49-.73,5.81,5.81,0,0,1,.56-.65,6.39,6.39,0,0,1,4-1.74h0c.27,0,.56,0,.86,0a8.43,8.43,0,0,1,.86,0,10.85,10.85,0,0,1,4.41,1.49Zm-.35.63h0a10.31,10.31,0,0,0-4.12-1.4,7.26,7.26,0,0,0-.8,0,5.32,5.32,0,0,0-.79,0h0a5.59,5.59,0,0,0-3.58,1.54,5.39,5.39,0,0,0-.5.56,5.82,5.82,0,0,0-.44.66h0a5.35,5.35,0,0,0-.68,3.7,5.56,5.56,0,0,0,.18.76,6.77,6.77,0,0,0,.3.77h0v0a8.7,8.7,0,0,0,2.7,3.3,8.94,8.94,0,0,0,.77.56c.27.18.55.36.85.53h0a13.39,13.39,0,0,0,2.26,1,9.1,9.1,0,0,0,2.13.5h0a7.35,7.35,0,0,0,2.59-.16,4.59,4.59,0,0,0,.45-.14l.45-.17h0a5.33,5.33,0,0,0,2-1.48,3.79,3.79,0,0,0,.3-.4,3.49,3.49,0,0,0,.28-.43h0a5.5,5.5,0,0,0,.8-2.77,5.71,5.71,0,0,0-.77-2.82h0a10,10,0,0,0-2.8-3.15h0l-.75-.54c-.27-.17-.54-.34-.82-.5Zm-1,1.62a9.84,9.84,0,0,0-2.5-1.06,5.47,5.47,0,0,0-2.18-.14h0l-.55.11a4.2,4.2,0,0,0-.5.17,3.62,3.62,0,0,0-1.87,1.6h0a3.74,3.74,0,0,0-.54,2,4.16,4.16,0,0,0,.68,2.06h0a4.87,4.87,0,0,0,.32.47c.1.15.23.3.36.46h0a10.19,10.19,0,0,0,2.63,2.11h0l.52.28.51.25a9.24,9.24,0,0,0,2.58.77h0l.36,0,.35,0a4.63,4.63,0,0,0,1.68-.35,4,4,0,0,0,1-.65,3.59,3.59,0,0,0,.75-.92h0l0,0h0a3.94,3.94,0,0,0,.28-.59,3.13,3.13,0,0,0,.18-.57,3.8,3.8,0,0,0-.63-3h0a8.15,8.15,0,0,0-1.4-1.59,12.4,12.4,0,0,0-2.09-1.47ZM384.45,176a11,11,0,0,1,2.69,1.14h0a13.93,13.93,0,0,1,2.2,1.55,8,8,0,0,1,1.53,1.75h0a4.46,4.46,0,0,1,.73,3.49,4.54,4.54,0,0,1-.21.69,4.62,4.62,0,0,1-.33.67h0l0,0h0a4.17,4.17,0,0,1-.9,1.1,4.6,4.6,0,0,1-1.22.77,5.05,5.05,0,0,1-2,.4h-.4l-.4,0h0a9.81,9.81,0,0,1-2.78-.83c-.18-.08-.36-.16-.55-.26l-.54-.3h0a10.93,10.93,0,0,1-2.82-2.26h0c-.14-.16-.27-.33-.4-.51a5.91,5.91,0,0,1-.35-.52h0a4.79,4.79,0,0,1-.78-2.41,4.37,4.37,0,0,1,.63-2.38h0a4.26,4.26,0,0,1,2.23-1.91,4.92,4.92,0,0,1,.58-.19c.21-.05.41-.1.62-.13h0a6.11,6.11,0,0,1,2.46.15ZM374,184.56l13.75,11.32.2.17-.09.24-.75,1.84-.09.24h-.26l-17.89-1.08-.5,0,.19-.46.79-2,.1-.24.26,0,5.12.4,2-4.9-4-3.18-.21-.17.1-.24.73-1.82.19-.45.37.31Zm13.09,11.71-13.16-10.85-.46,1.12,4,3.18.21.17-.1.24-2.18,5.39-.1.25-.26,0-5.12-.4-.5,1.24,17.14,1,.54-1.35Zm-8.2-4.51-1.4,3.47,4.42.38h0l2,.2H384l-.12-.09q-.7-.48-1.32-1h0l-3.67-3Zm-2.25,3.66,1.77-4.38.18-.45.38.31,4,3.28h0c.41.33.84.66,1.28,1s.91.62,1.41.92l-.24.66-1.66-.21c-.59-.07-1.24-.13-2-.19h0l-4.9-.42-.48,0,.18-.45Zm-8.37,3.06,16.33,4.69.35.1-.1.34-.52,1.82-.06.2-.21.05-13.48,3L382,212l.35.1-.1.35-.49,1.69-.1.35-.34-.1L365,209.72l-.35-.1.1-.34.52-1.81.06-.2.2-.05L379,204.17l-11.49-3.29-.34-.1.1-.34.48-1.71.1-.34.35.09ZM384,203.76l-15.64-4.49-.3,1,12.5,3.58,0,.69-14.65,3.31-.36,1.26,15.64,4.49.29-1L369,209l0-.7L383.65,205l.37-1.27ZM363,220.42l14.48,2,.59-4.19.05-.35.36.05,2,.28.36,0,0,.35-1.54,10.94-.05.36-.35-.05-2-.28-.36-.05.05-.36.6-4.21-14.49-2-.35,0,.05-.35.25-1.83.05-.35.36,0Zm14.74,2.79-14.49-2-.15,1.11,14.48,2,.36,0,0,.35-.59,4.22,1.27.18L380,218.9l-1.28-.18-.59,4.19-.05.35-.35,0ZM379,230.5h.36l0,.36-.06,1.84v.36h-.36l-6.62-.23-.22,6.52,6.61.23h.36V240l-.07,1.84v.36h-.36l-17-.6h-.36l0-.35.06-1.85V239l.36,0,7.64.26.23-6.52-7.64-.27h-.36v-.36l.07-1.84v-.36l17.34.61Zm-.38.7-16.27-.57,0,1.13L370,232h.36v.36l-.25,7.24V240h-.36l-7.65-.26,0,1.12,16.26.57,0-1.13-6.62-.23h-.35v-.36l.25-7.24v-.36l.36,0,6.62.23,0-1.13Zm-16.81,12.15,17.32,4.15.26.06,0,.26.13,2,0,.26-.24.1L362.79,257l-.46.19,0-.49-.15-2.11,0-.26.25-.1,4.77-1.88-.37-5.27-5-1.11-.26-.06,0-.27-.13-1.95,0-.49.48.12Zm16.9,4.79-16.59-4,.08,1.2,5,1.11.26.06,0,.27.41,5.8v.26l-.24.1-4.78,1.88.1,1.34,15.85-6.59-.1-1.45Zm-9.35-.46.26,3.74,4.13-1.6h0l.55-.21.52-.2.9-.32-.15,0c-.56-.09-1.1-.19-1.62-.31h0l-4.6-1.07ZM369,252l-.33-4.71,0-.48.48.11,5.07,1.18h0c.52.12,1,.22,1.58.31s1.09.15,1.67.21l.07.7c-.68.21-1.47.49-2.36.82l-.52.19-.53.2h0l-4.59,1.77-.46.17,0-.48Zm-5.81,6.61,16.73-2.95.35-.06.07.35.32,1.86,0,.21-.16.14-10.78,8.65,11.76-2.08.35-.06.06.36.31,1.73.06.35-.35.06-16.73,2.95-.36.07-.06-.36-.33-1.85,0-.21.16-.13,10.79-8.65L363.58,261l-.35.07-.07-.36-.3-1.74-.07-.36.36-.06Zm16.5-2.18-16,2.83.18,1,12.8-2.25.29.63L365.18,268l.23,1.29,16-2.82-.18-1-12.78,2.26-.29-.64,11.7-9.39-.23-1.3ZM366.3,273.05l16.16-5.25.34-.11.11.34.57,1.75.11.34-.34.11-6.29,2,2,6.2,6.3-2,.34-.11.11.34.57,1.75.11.34-.34.11-16.16,5.25-.34.12-.11-.35-.57-1.75-.11-.34.34-.11,7.27-2.36-2-6.21-7.28,2.36-.34.11-.11-.34-.57-1.75-.11-.34.34-.11Zm16-4.46-15.48,5,.35,1.07,7.28-2.36.34-.11.11.34,2.24,6.89.11.34-.34.11-7.28,2.36.35,1.07,15.48-5-.35-1.07-6.3,2-.34.11-.11-.34-2.24-6.89-.11-.34.34-.11,6.3-2-.35-1.07Zm-9.65,22.62,15.14-7.71.32-.16.16.32.86,1.68.09.19-.12.18-7.77,11.42L392,291.71l.32-.17.16.32.8,1.57.16.32-.32.17L378,301.63l-.31.16-.17-.32-.85-1.68-.1-.18.12-.18L384.47,288l-10.65,5.43-.32.16-.16-.32-.81-1.57-.16-.33.32-.16Zm15.14-6.91-14.5,7.39.48.94,11.58-5.9.46.52-8.46,12.41.6,1.17,14.5-7.39-.48-.93-11.56,5.89-.46-.52,8.44-12.4-.6-1.18Zm-8.06,20.5,14.41-9,.31-.19.19.3,1,1.56.19.31-.3.19-14.41,9-.3.19-.2-.3-1-1.57-.19-.3.3-.19Zm14.49-8.21-13.8,8.63.59.95,13.8-8.62-.59-1ZM383,309.72,397,300l.29-.2.21.29,5.78,8.25.2.3-.29.2L401.49,310l-.29.21-.2-.3-4.52-6.44L392.81,306l4.21,6,.21.29-.3.21-1.63,1.14-.29.21-.21-.3-4.21-6-4.15,2.91,4.7,6.71.2.3-.29.2-1.64,1.15-.3.21-.2-.3-6-8.51-.2-.3.29-.2Zm14-9-13.33,9.33,5.55,7.93,1-.74-4.7-6.71-.2-.3.29-.2,4.74-3.32.29-.2.21.29,4.21,6,1.05-.73-4.22-6-.2-.3.29-.2,4.26-3,.3-.2.2.29,4.52,6.45,1.05-.74-5.36-7.66Zm-5.92,20,13-10.92.27-.23.23.28,1.22,1.45.13.16-.07.2-5,12.88,9.15-7.68.27-.23.24.28,1.13,1.34.23.28-.28.23-13,10.92-.28.23-.23-.27L397,328.21l-.14-.16.08-.2,5-12.88-9.16,7.68-.27.23-.23-.27-1.14-1.36-.23-.28.27-.23Zm13.2-10.14-12.46,10.46.68.81,9.95-8.35.57.4-5.45,14,.84,1L411,318.46l-.67-.8L400.33,326l-.56-.41,5.43-14-.85-1Zm12.12,25.89,1.09,1.61.18.27-.26.2h0l-.58.45-.58.39a8,8,0,0,1-3,1.16h0a4.91,4.91,0,0,1-.67.05,4.71,4.71,0,0,1-.65,0,5.7,5.7,0,0,1-3.1-1.33h0a8.22,8.22,0,0,1-.8-.75,6.14,6.14,0,0,1-.63-.84,6.33,6.33,0,0,1-.49-5.35h0a10.92,10.92,0,0,1,.94-2.27,15.53,15.53,0,0,1,1.53-2.26h0c.33-.41.66-.79,1-1.14s.68-.66,1-1a7.51,7.51,0,0,1,5.62-2h0a6.79,6.79,0,0,1,1.8.45,6.64,6.64,0,0,1,1.6,1h0c.17.14.32.28.47.43a3.47,3.47,0,0,1,.41.45,5.18,5.18,0,0,1,1.17,2.75h0a6.18,6.18,0,0,1-.09,2h0a8.44,8.44,0,0,1-.72,2.1l-.14.31-.32-.13-1.73-.73-.34-.15.15-.33a5.25,5.25,0,0,0,.56-2.75,2.87,2.87,0,0,0-1.12-1.92,3.66,3.66,0,0,0-2.15-.9,4.52,4.52,0,0,0-2.44.66h0l-.38.23a4.33,4.33,0,0,0-.37.27h0a11.46,11.46,0,0,0-2,2,13.19,13.19,0,0,0-1.4,2.06,7.72,7.72,0,0,0-.75,1.9h0a4.3,4.3,0,0,0-.12.65,4.24,4.24,0,0,0,0,.61,3.35,3.35,0,0,0,1.34,2.52,3.31,3.31,0,0,0,1.29.66h0a3.22,3.22,0,0,0,1.45,0h0l.37-.1.37-.12a6.93,6.93,0,0,0,1.94-1.24l.31-.27.22.34Zm.3,1.73-.67-1a7,7,0,0,1-1.84,1.1l-.42.15a3.89,3.89,0,0,1-.43.11h0a3.87,3.87,0,0,1-1.76,0h0a4.35,4.35,0,0,1-3.17-3.85,4.24,4.24,0,0,1,0-.71,6.54,6.54,0,0,1,.13-.75h0a8.24,8.24,0,0,1,.82-2.08,13.86,13.86,0,0,1,1.47-2.17,12.49,12.49,0,0,1,2.13-2.12h0l.42-.3.42-.25h0a5.23,5.23,0,0,1,2.82-.74,4.41,4.41,0,0,1,2.57,1.05,3.55,3.55,0,0,1,1.38,2.39,5.58,5.58,0,0,1-.47,2.8l1.08.45a8.66,8.66,0,0,0,.52-1.62h0a5.67,5.67,0,0,0,.08-1.78h0a4.46,4.46,0,0,0-1-2.38q-.17-.19-.36-.39a5.14,5.14,0,0,0-.42-.38h0a6,6,0,0,0-1.43-.85,5.37,5.37,0,0,0-1.6-.4h0a6.85,6.85,0,0,0-5.1,1.79c-.32.27-.64.57-1,.9s-.64.7-1,1.09h0a14.87,14.87,0,0,0-1.46,2.15,10.26,10.26,0,0,0-.88,2.12h0a5.64,5.64,0,0,0,.41,4.77,4.81,4.81,0,0,0,.55.73,7.79,7.79,0,0,0,.72.68h0a5,5,0,0,0,2.72,1.17,5.43,5.43,0,0,0,.57,0c.19,0,.38,0,.58-.05h0a7.14,7.14,0,0,0,2.71-1.06c.18-.11.36-.24.55-.37l.29-.22Zm3.37-1.41h0c.18-.29.37-.56.57-.83s.4-.52.6-.76a10.77,10.77,0,0,1,3.53-2.81h0a6.43,6.43,0,0,1,3.21-.7,6,6,0,0,1,1.76.39,7.4,7.4,0,0,1,2.42,1.57h0a5.94,5.94,0,0,1,1.37,2.16h0c.06.17.12.33.17.51s.09.33.12.51a7.94,7.94,0,0,1,0,2.84h0a9.9,9.9,0,0,1-.65,2.26,14.52,14.52,0,0,1-1.23,2.32h0c-.19.29-.39.58-.6.86s-.42.54-.63.78a9.56,9.56,0,0,1-3.73,2.72h0a8.72,8.72,0,0,1-.87.28,6.87,6.87,0,0,1-.86.17,6,6,0,0,1-4.16-1h0a7.71,7.71,0,0,1-.71-.53,6.92,6.92,0,0,1-.61-.6,6.35,6.35,0,0,1-1.51-4.1h0v0h0c0-.29,0-.58,0-.86s.05-.57.09-.86a11,11,0,0,1,1.72-4.3Zm1.16-.41c-.19.25-.37.51-.55.79h0a10.21,10.21,0,0,0-1.62,4c0,.26-.07.53-.09.79s0,.54,0,.8v0a5.67,5.67,0,0,0,1.34,3.65,5.39,5.39,0,0,0,.54.53,5.21,5.21,0,0,0,.63.48h0a5.32,5.32,0,0,0,3.66.88,5.63,5.63,0,0,0,.78-.15,6.62,6.62,0,0,0,.79-.26h0a8.91,8.91,0,0,0,3.44-2.52c.2-.24.4-.48.6-.74s.38-.54.57-.83h0a13.78,13.78,0,0,0,1.17-2.19,9.63,9.63,0,0,0,.61-2.11h0a7.47,7.47,0,0,0,0-2.59c0-.15-.07-.3-.11-.46s-.09-.3-.15-.45h0a5.46,5.46,0,0,0-1.38-2.08l-.38-.32-.41-.29h0a5.61,5.61,0,0,0-2.73-.95,5.73,5.73,0,0,0-2.86.63h0a10,10,0,0,0-3.29,2.62c-.2.24-.39.48-.57.73Zm8.57-4.29a7.41,7.41,0,0,1,1.28.66h0l.47.33.42.36-.07,0-2.1-1.33Zm-7.55,6.15a9.74,9.74,0,0,0-1.19,2.44,5.57,5.57,0,0,0-.26,2.17h0v0h0a3.31,3.31,0,0,0,.08.55h0a3.8,3.8,0,0,0,.14.51,3.58,3.58,0,0,0,1.5,1.94,3.72,3.72,0,0,0,2,.65,4.23,4.23,0,0,0,2.09-.57h0l.49-.29c.16-.11.32-.22.47-.34a10.35,10.35,0,0,0,2.25-2.52h0c.1-.15.2-.32.31-.5s.19-.33.27-.5a9.33,9.33,0,0,0,.9-2.54h0c0-.12,0-.24.05-.36a2,2,0,0,0,0-.34,4.19,4.19,0,0,0-.26-1.69h0a3.69,3.69,0,0,0-.59-1.07,3.34,3.34,0,0,0-.88-.79h0l-.06-.05h0a5.21,5.21,0,0,0-.57-.3h0a3.52,3.52,0,0,0-.56-.21,3.8,3.8,0,0,0-3,.48,7.67,7.67,0,0,0-1.67,1.33,12.43,12.43,0,0,0-1.57,2Zm-1.88,2.23a10.68,10.68,0,0,1,1.28-2.62,13.35,13.35,0,0,1,1.66-2.12,8.64,8.64,0,0,1,1.83-1.44,4.46,4.46,0,0,1,3.49-.55,5.49,5.49,0,0,1,.68.24h0a4.63,4.63,0,0,1,.65.36h0l.06,0h0a4.63,4.63,0,0,1,1.06,1,4.52,4.52,0,0,1,.69,1.26h0a5.06,5.06,0,0,1,.31,2c0,.14,0,.27,0,.4a3,3,0,0,1-.06.4v0a9.94,9.94,0,0,1-1,2.73c-.09.18-.19.36-.29.53l-.33.53h0a10.61,10.61,0,0,1-2.41,2.69c-.17.14-.35.26-.52.38s-.36.22-.54.32h0a5,5,0,0,1-2.45.66,4.42,4.42,0,0,1-2.34-.76,4.29,4.29,0,0,1-1.79-2.33,3.83,3.83,0,0,1-.16-.58h0a6.17,6.17,0,0,1-.1-.62h0a6.2,6.2,0,0,1,.28-2.45Zm9,11.92,7.18-15.4.15-.32.33.15,1.71.8.19.09,0,.21.9,13.79L445,340.91l.15-.33.33.15,1.59.75.33.15-.16.32-7.17,15.4-.16.33-.32-.15-1.71-.8-.19-.09v-.21l-.9-13.8-5.05,10.83-.16.33-.32-.15-1.61-.75-.32-.15.15-.33Zm7.68-14.77-6.88,14.75,1,.44,5.49-11.77.68.13,1,15,1.18.55L446.42,342l-.94-.44L440,353.3l-.68-.13-1-15-1.19-.56Zm14.46,16.93.65-1.9.12-.34.34.12,5.58,1.92.34.11-.12.34-2.05,6-.05.14-.14.06a10.16,10.16,0,0,1-3.42,1,7.53,7.53,0,0,1-3.18-.35,7,7,0,0,1-3.33-2.27,7.39,7.39,0,0,1-1.45-3.83,9.79,9.79,0,0,1,0-2.35,14.67,14.67,0,0,1,1.58-4.72,11.58,11.58,0,0,1,1.26-1.85,8.6,8.6,0,0,1,1.79-1.65,6.42,6.42,0,0,1,2-.91h0l.53-.11.53-.05a6.93,6.93,0,0,1,2.83.41h0a6.86,6.86,0,0,1,.79.32h0q.38.18.72.39h0a5.27,5.27,0,0,1,2.32,3.06h0v0h0c0,.13.07.26.09.39a3.8,3.8,0,0,1,.06.4,9.81,9.81,0,0,1,0,2.41l0,.31H457l0-.39a6,6,0,0,0-.11-2.08,3.1,3.1,0,0,0-.8-1.43h0l-.17-.16h0l-.19-.15a4.44,4.44,0,0,0-3.65-.73,4.83,4.83,0,0,0-2.21,1.46h0l-.28.33-.29.39a10.48,10.48,0,0,0-1.22,2.51,10.29,10.29,0,0,0-.57,2.46,6.52,6.52,0,0,0,.1,2.09h0a3.92,3.92,0,0,0,.18.61,4,4,0,0,0,.25.55h0a4.21,4.21,0,0,0,2.44,1.92,4.5,4.5,0,0,0,1,.22,6,6,0,0,0,1.12,0,5.88,5.88,0,0,0,1.1-.18,4.62,4.62,0,0,0,.79-.3l.87-2.52L451.81,355l-.34-.11.12-.34Zm1.22-1.33-.42,1.22,3.52,1.21.34.12-.11.34-1,3-.17.2a4.88,4.88,0,0,1-1.07.43,7.89,7.89,0,0,1-1.23.21,6.58,6.58,0,0,1-1.26,0,4.54,4.54,0,0,1-1.13-.25,4.94,4.94,0,0,1-2.84-2.25h0a4.76,4.76,0,0,1-.29-.65,4,4,0,0,1-.21-.7h0a6.82,6.82,0,0,1-.12-2.32,11.59,11.59,0,0,1,.6-2.63,11.34,11.34,0,0,1,1.31-2.68L449,348a4.32,4.32,0,0,1,.34-.39h0A5.45,5.45,0,0,1,451.9,346a5.18,5.18,0,0,1,4.27.84l.23.18h0l.21.2h0a3.82,3.82,0,0,1,1,1.76,6,6,0,0,1,.16,1.94h1a7.6,7.6,0,0,0,0-1.91,2.33,2.33,0,0,0-.06-.35,2.72,2.72,0,0,0-.07-.33h0v0h0a4.53,4.53,0,0,0-2-2.65h0a5.56,5.56,0,0,0-.64-.35h0c-.23-.1-.47-.2-.73-.29h0a6.49,6.49,0,0,0-2.55-.38h0l-.48.05-.46.1h0a5.76,5.76,0,0,0-1.81.81,7.68,7.68,0,0,0-1.64,1.51,10.75,10.75,0,0,0-1.18,1.73,14.88,14.88,0,0,0-.9,2.06,13.34,13.34,0,0,0-.6,2.42,8.82,8.82,0,0,0,0,2.17,6.77,6.77,0,0,0,1.3,3.47,6.36,6.36,0,0,0,3,2,6.8,6.8,0,0,0,2.88.32,9.88,9.88,0,0,0,3.05-.87l1.88-5.48-4.89-1.69Zm10.7,5.5,1.75.15.36,0,0,.36a4.66,4.66,0,0,0,.2,2.06,3.05,3.05,0,0,0,1,1.4h0a4.45,4.45,0,0,0,.82.49h0a4.5,4.5,0,0,0,1,.3h0l.37.06.35,0a3.31,3.31,0,0,0,1.54-.29h0a2.07,2.07,0,0,0,.82-.66,2.52,2.52,0,0,0,.44-1h0c0-.12,0-.24.05-.35s0-.23,0-.33a2.08,2.08,0,0,0-.79-1.41h0c-.06,0-.11-.09-.18-.13l-.24-.16c-.47-.31-1.19-.71-2.16-1.21h0c-.5-.27-.93-.51-1.29-.74a7.47,7.47,0,0,1-.92-.65h0l-.29-.26h0a2.37,2.37,0,0,1-.27-.28,4.41,4.41,0,0,1-.91-1.69h0v0h0a2.82,2.82,0,0,1-.07-.31,3.55,3.55,0,0,1-.08-.47h0a5.18,5.18,0,0,1,.08-1.46h0a5.84,5.84,0,0,1,.15-.6,4.08,4.08,0,0,1,.2-.56,4.46,4.46,0,0,1,1.84-2.17h0a4.91,4.91,0,0,1,1.85-.67,6.06,6.06,0,0,1,2.11.07h0a7.54,7.54,0,0,1,.88.22,6.62,6.62,0,0,1,.78.3,4.71,4.71,0,0,1,2.59,2.92h0c0,.13.08.26.11.4h0a2.71,2.71,0,0,1,.09.41,5.82,5.82,0,0,1,0,2.12l-.06.33-.33,0-1.77-.18-.36,0,0-.36a3.34,3.34,0,0,0-.44-2.34,3,3,0,0,0-2-1.11h0l-.34-.06h0l-.33,0a3.09,3.09,0,0,0-1.39.21h0a1.78,1.78,0,0,0-.74.54,2.1,2.1,0,0,0-.39.91h0a1.55,1.55,0,0,0,0,.29,1.31,1.31,0,0,0,0,.28h0a1.73,1.73,0,0,0,.62,1.19h0l.14.12.18.13a14.76,14.76,0,0,0,1.63.92h0l.52.26.48.25h0a13,13,0,0,1,1.71,1.05,4.94,4.94,0,0,1,1.69,2.21,5.1,5.1,0,0,1,.16,2.79h0l-.09.41-.12.39a5.68,5.68,0,0,1-1,1.78h0a4.12,4.12,0,0,1-.28.31,3.83,3.83,0,0,1-.29.28h0a4.86,4.86,0,0,1-1.79,1h0a5.1,5.1,0,0,1-1.48.24,7.14,7.14,0,0,1-1.63-.14h0l-.72-.18a6.38,6.38,0,0,1-.66-.22h0a5.53,5.53,0,0,1-3.47-4.25,7.18,7.18,0,0,1,.06-2.52l.06-.31.32,0Zm1.34.84-1.07-.09a6.3,6.3,0,0,0,0,1.94,4.83,4.83,0,0,0,3,3.7h0a6.08,6.08,0,0,0,.6.21c.21.05.42.11.65.15h0a6.37,6.37,0,0,0,1.47.13,4.58,4.58,0,0,0,1.29-.21h0a4,4,0,0,0,1.52-.85h0l.25-.24.24-.27h0a4.92,4.92,0,0,0,.87-1.55c0-.12.07-.23.1-.35a3.21,3.21,0,0,0,.08-.36h0a4.48,4.48,0,0,0-.14-2.41,4.21,4.21,0,0,0-1.45-1.9,11.21,11.21,0,0,0-1.61-1h0l-.46-.25-.51-.25h0a14.5,14.5,0,0,1-1.73-1,1.66,1.66,0,0,1-.21-.16,1.41,1.41,0,0,1-.18-.14h0a2.47,2.47,0,0,1-.85-1.66h0a2.41,2.41,0,0,1,0-.38c0-.13,0-.26.05-.39h0a2.89,2.89,0,0,1,.53-1.22,2.63,2.63,0,0,1,1-.77h0a3.88,3.88,0,0,1,1.7-.26l.37,0h0l.39.06h0a3.68,3.68,0,0,1,2.42,1.41,3.78,3.78,0,0,1,.59,2.47l1.09.11a5,5,0,0,0,0-1.55c0-.12,0-.24-.07-.36h0c0-.11-.07-.23-.11-.35h0v0h0a4,4,0,0,0-2.21-2.49,5.68,5.68,0,0,0-.7-.27c-.25-.08-.52-.14-.79-.2h0a5.41,5.41,0,0,0-1.87-.06,4,4,0,0,0-1.57.57h0a3.79,3.79,0,0,0-1.56,1.83,4,4,0,0,0-.17.49,4.27,4.27,0,0,0-.13.54h0a4.52,4.52,0,0,0-.06,1.26h0a2.76,2.76,0,0,0,.06.4c0,.08,0,.16.06.25h0v0h0a3.69,3.69,0,0,0,.76,1.42l.23.24a1.84,1.84,0,0,0,.25.23h0a7.86,7.86,0,0,0,.82.58c.36.22.77.46,1.26.71,1,.51,1.72.93,2.22,1.25l.26.18.22.16h0a2.71,2.71,0,0,1,1,1.9,2,2,0,0,1,0,.43,3.44,3.44,0,0,1-.05.45h0a3.18,3.18,0,0,1-.56,1.34,2.87,2.87,0,0,1-1.09.88h0a3.94,3.94,0,0,1-1.87.35,2.63,2.63,0,0,1-.41,0l-.42-.07h0a5,5,0,0,1-1.12-.35h0a4.72,4.72,0,0,1-1-.58h0a3.73,3.73,0,0,1-1.24-1.72,5.09,5.09,0,0,1-.26-2Zm9.92,6.95,6.82-16.46.1-.25.26,0,2,.17.26,0,.06.25,4.2,17.43.12.48-.5,0L486,368l-.26,0-.05-.26-1.12-5-5.26-.46L477.39,367l-.1.25-.26,0-1.95-.17-.49,0,.18-.45Zm7.38-15.95-6.53,15.77,1.2.1,1.88-4.74.1-.25.27,0,5.79.51.26,0,.06.26,1.11,5,1.34.12-4-16.69-1.46-.13Zm-1.91,9.17,3.73.32-.93-4.33q-.24-1.11-.42-2.07l0,.15c-.18.53-.36,1.05-.57,1.55h0l-1.77,4.38Zm4.15,1.08-4.7-.41-.49,0,.19-.45,2-4.83h0c.19-.48.38-1,.54-1.51s.33-1.06.48-1.61l.7,0c.15,1,.38,2.21.67,3.58l1,4.81.1.47-.48,0Zm5.62,6.75-.59-17v-.36h.36l1.89-.07h.21l.11.19L499,362.21l-.41-11.94v-.35l.36,0,1.76-.06h.35v.36l.6,17v.36h-.36l-1.88.06h-.21l-.11-.18-7.07-11.89.42,11.95v.36h-.36l-1.77.06H490l0-.35Zm.14-16.65.57,16.26,1,0-.45-13,.67-.2,7.67,12.91,1.31,0-.57-16.27-1,0,.45,13-.67.2-7.67-12.9-1.32.05Zm19.19,15.28-3.25-16.68-.06-.35.35-.07,1.81-.35.35-.07.07.35,1.26,6.5,6.41-1.24L515,347.8l-.06-.35.35-.07,1.81-.35.35-.07.07.35L520.77,364l.07.35-.35.07-1.81.35-.35.07-.07-.35L516.8,357l-6.41,1.25,1.46,7.5.07.35-.35.07-1.81.35-.35.07-.07-.35Zm-2.47-16.46,3.1,16,1.11-.21L509.62,358l-.07-.35.35-.07L517,356.2l.36-.07.06.35,1.46,7.51,1.11-.22-3.11-16-1.1.21,1.26,6.5.07.35-.35.07-7.11,1.38-.36.07-.06-.35-1.27-6.5-1.1.22Zm13.87,5.8h0c-.11-.32-.21-.64-.3-1s-.16-.63-.23-.94a10.85,10.85,0,0,1,0-4.5,6.56,6.56,0,0,1,1.43-3,6.37,6.37,0,0,1,2.74-1.77h0l.08,0h0a5.52,5.52,0,0,1,.54-.16h0c.16,0,.31-.07.47-.09h0l.4-.05h0a6.15,6.15,0,0,1,2.4.27h0l.49.18.49.22a8.11,8.11,0,0,1,2.27,1.73,10.27,10.27,0,0,1,1.38,1.91,13.92,13.92,0,0,1,1.07,2.4h0v0h0c.11.35.22.68.31,1s.16.66.22,1a9.39,9.39,0,0,1-.16,4.59h0a9,9,0,0,1-.31.87,7.11,7.11,0,0,1-.4.78,6,6,0,0,1-3.34,2.67h0a8.37,8.37,0,0,1-.86.23,6.18,6.18,0,0,1-.85.11,6.3,6.3,0,0,1-4.18-1.33h0c-.24-.17-.46-.35-.68-.54a7,7,0,0,1-.62-.6,11,11,0,0,1-2.35-4Zm.67-.25v0h0a10.21,10.21,0,0,0,2.2,3.77,7.4,7.4,0,0,0,.57.55,7.14,7.14,0,0,0,.62.5h0a5.62,5.62,0,0,0,3.72,1.19,3.86,3.86,0,0,0,.75-.1A5.78,5.78,0,0,0,530,361h0a5.28,5.28,0,0,0,3-2.36,4.63,4.63,0,0,0,.36-.7,7.08,7.08,0,0,0,.28-.78h0a9,9,0,0,0,.14-4.24c-.06-.31-.13-.62-.22-.93s-.18-.64-.29-1h0v0h0a13.61,13.61,0,0,0-1-2.27A8.94,8.94,0,0,0,531,347a7.23,7.23,0,0,0-2.06-1.58l-.44-.19c-.15-.07-.3-.12-.44-.17h0a5.36,5.36,0,0,0-2.41-.2,4,4,0,0,0-.48.09h0l-.49.14h0l-.08,0h0a5.62,5.62,0,0,0-2.44,1.56,5.82,5.82,0,0,0-1.27,2.64,10.11,10.11,0,0,0,0,4.2q.09.45.21.9c.08.29.18.6.29.92Zm1.81-.57a9.73,9.73,0,0,0,1.19,2.44,5.56,5.56,0,0,0,1.56,1.54h0a3.43,3.43,0,0,0,.49.28,5,5,0,0,0,.48.21h0a3.65,3.65,0,0,0,2.46,0,3.72,3.72,0,0,0,1.72-1.15,4.29,4.29,0,0,0,.84-2h0c0-.18,0-.37.07-.56s0-.4,0-.59a10.18,10.18,0,0,0-.61-3.31h0c-.07-.21-.14-.39-.2-.55s-.15-.35-.23-.53a9.26,9.26,0,0,0-1.44-2.27h0l-.24-.26-.26-.24a4.45,4.45,0,0,0-1.5-.84,4,4,0,0,0-1.2-.19,3.69,3.69,0,0,0-1.17.2h0a4,4,0,0,0-.6.25,3,3,0,0,0-.52.32,3.74,3.74,0,0,0-1.48,2.65h0a8,8,0,0,0,0,2.13,13.86,13.86,0,0,0,.61,2.47Zm.6,2.86a11.22,11.22,0,0,1-1.28-2.62,14.23,14.23,0,0,1-.64-2.62,8.59,8.59,0,0,1,0-2.32h0a4.48,4.48,0,0,1,1.77-3.14,5.2,5.2,0,0,1,.61-.37,4.45,4.45,0,0,1,.7-.29h0a4.16,4.16,0,0,1,1.4-.24,4.74,4.74,0,0,1,1.42.23,5.22,5.22,0,0,1,1.75,1c.1.08.19.18.29.27l.27.29h0a10,10,0,0,1,1.56,2.45l.24.56c.08.21.16.4.22.58h0a10.68,10.68,0,0,1,.64,3.55c0,.22,0,.44,0,.64s0,.41-.08.62h0a4.76,4.76,0,0,1-1,2.33,4.39,4.39,0,0,1-2,1.38,4.3,4.3,0,0,1-2.94,0h0a3.37,3.37,0,0,1-.56-.24,5.21,5.21,0,0,1-.56-.31h0a6.18,6.18,0,0,1-1.77-1.73ZM549.24,346l1.91-.36.32-.07.09.32v0c.06.23.12.47.17.71s.1.46.14.69a8,8,0,0,1-.1,3.18h0a5.8,5.8,0,0,1-.2.63c-.09.21-.18.41-.28.6a5.7,5.7,0,0,1-2.44,2.34h0a8.13,8.13,0,0,1-1,.44,6,6,0,0,1-1,.25,6.32,6.32,0,0,1-5.11-1.64h0a11.42,11.42,0,0,1-1.72-1.75,16,16,0,0,1-1.48-2.3h0c-.25-.46-.46-.92-.65-1.37a11.16,11.16,0,0,1-.48-1.32,7.45,7.45,0,0,1,.4-5.94h0a6,6,0,0,1,1.11-1.48,6.22,6.22,0,0,1,1.52-1.1h0q.29-.15.57-.27a4.43,4.43,0,0,1,.58-.2,5.08,5.08,0,0,1,3,0h0a6.45,6.45,0,0,1,1.8.86A9.39,9.39,0,0,1,548,339.7l.23.26-.25.24-1.35,1.31-.27.26-.25-.27a5.24,5.24,0,0,0-2.31-1.6,2.91,2.91,0,0,0-2.2.28,3.73,3.73,0,0,0-1.67,1.64,4.54,4.54,0,0,0-.34,2.5h0c0,.14,0,.29.06.43s.06.3.1.46a11.7,11.7,0,0,0,1.06,2.62h0c.11.21.23.43.36.65s.25.41.38.6a8.68,8.68,0,0,0,2.06,2.27h0a3.79,3.79,0,0,0,.56.36,3.39,3.39,0,0,0,1.12.41,3.63,3.63,0,0,0,3.37-1.33,3.26,3.26,0,0,0,.57-1.33h0c0-.13,0-.25.05-.37a2.66,2.66,0,0,0,0-.39,7,7,0,0,0-.38-2.27l-.13-.39.4-.08Zm1.71.4-1.18.23a7.47,7.47,0,0,1,.3,2.12l0,.45c0,.15,0,.3-.07.44h0a4,4,0,0,1-.7,1.62,4.39,4.39,0,0,1-4.08,1.61,4.44,4.44,0,0,1-1.34-.49,5.25,5.25,0,0,1-.64-.41h0a9.59,9.59,0,0,1-2.24-2.45c-.14-.21-.27-.42-.4-.63s-.24-.44-.38-.68h0a12.53,12.53,0,0,1-1.12-2.78c0-.16-.07-.33-.1-.5s-.06-.33-.08-.48v0h0a5.15,5.15,0,0,1,.42-2.88,4.34,4.34,0,0,1,2-2,3.63,3.63,0,0,1,2.74-.34,5.68,5.68,0,0,1,2.39,1.53l.84-.81a8.2,8.2,0,0,0-1.29-1.12,5.44,5.44,0,0,0-1.6-.76h0a4.48,4.48,0,0,0-2.59,0,5.17,5.17,0,0,0-.51.18l-.51.24h0a5.58,5.58,0,0,0-1.34,1,5.9,5.9,0,0,0-1,1.31h0a6.82,6.82,0,0,0-.33,5.4,11,11,0,0,0,.45,1.24,13.88,13.88,0,0,0,.62,1.31v0h0a14.37,14.37,0,0,0,1.41,2.18,10.48,10.48,0,0,0,1.6,1.65h0a5.68,5.68,0,0,0,4.56,1.48,4.82,4.82,0,0,0,.89-.22,5.91,5.91,0,0,0,.9-.4h0a5.08,5.08,0,0,0,2.15-2.05,4.9,4.9,0,0,0,.24-.52,4.59,4.59,0,0,0,.18-.56h0a7.09,7.09,0,0,0,.09-2.89c0-.21-.08-.43-.13-.65a3,3,0,0,0-.09-.38Zm5.25,3.06L547,335.18l-.2-.3.3-.2,1.55-1,.3-.2.2.31,3.6,5.55,5.47-3.56-3.6-5.55-.2-.3.3-.19,1.55-1,.3-.19.2.3L566,343.09l.2.3-.31.19-1.54,1-.3.19-.2-.3-4.16-6.41-5.48,3.55,4.17,6.41.2.31-.31.19-1.54,1-.3.19-.2-.3Zm-8.46-14.34,8.87,13.65.94-.62-4.16-6.41-.2-.3.3-.19,6.08-4,.3-.2.19.31,4.17,6.41.94-.61-8.86-13.65-.94.61,3.6,5.55.2.3-.3.2-6.08,3.94-.3.2-.19-.3-3.61-5.55-1,.61Zm20.92,5.71L558,327.6l-.22-.28.28-.23,1.43-1.16.28-.22.22.28,10.7,13.2.22.28-.28.22-1.43,1.16-.28.23-.22-.28Zm-9.91-13.38L569,340.07l.87-.71-10.24-12.64-.87.7Zm18,6.88-12.42-11.59-.27-.24.25-.27,1.89-2,.19-.2.24.12,12.16,6.4-.78-1.27h0l-6.37-10.5-.14-.23.18-.2,1.69-1.82.25-.26.26.25,12.43,11.58.26.25-.24.26-1.21,1.3-.25.26-.26-.25-8.52-7.94,6.31,10.46.14.23-.19.2L581.23,330l-.18.2-.24-.12-11-5.71,8.66,8.08.26.24-.24.26-1.21,1.3-.24.26-.27-.24Zm-11.67-11.87,11.9,11.1.72-.77-10.31-9.62.4-.58,13.09,6.79.76-.82-7.49-12.43.55-.45,10.14,9.45.72-.77-11.91-11.1-1.26,1.36,6.23,10.27h0l1.47,2.38-.47.51-13.08-6.88-1.46,1.56Zm23.66-.85-13.39-10.46-.29-.22.22-.29,1.14-1.45.22-.28.28.22,13.39,10.46.28.22-.22.28-1.13,1.45-.22.29-.28-.22Zm-12.67-10.81,12.82,10,.7-.89-12.83-10-.69.89Zm16.22,6.34-13.92-9.74-.29-.21.2-.29,1.09-1.55.12-.17.21,0,13.74,1.5-9.78-6.85-.3-.21.21-.29,1-1.44.2-.29.3.2L599,307.54l.3.2-.21.3L598,309.58l-.12.17-.21,0-13.75-1.51,9.8,6.85.29.21-.2.29-1,1.45-.21.3-.29-.21ZM579.09,307l13.33,9.33.6-.86L582.38,308l.24-.65L597.55,309l.75-1.07L585,298.58l-.6.86L595,306.88l-.24.66-14.92-1.64-.75,1.09Zm21.79-2.1-15.14-7.72-.32-.16.16-.32.84-1.64.16-.32.32.16,5.9,3,3-5.82-5.9-3-.32-.16.17-.32.83-1.65.17-.32.32.17,15.14,7.71.32.16-.17.32-.83,1.64-.17.32-.32-.16-6.81-3.47-3,5.81,6.81,3.48.32.16-.16.32-.84,1.64-.16.32-.32-.16Zm-14.49-8.19,14.49,7.38.52-1-6.82-3.47-.32-.16.16-.32,3.29-6.46.16-.32.33.17L605,296l.51-1L591,287.6l-.51,1,5.9,3,.32.16-.16.32-3.29,6.45-.17.32-.32-.16-5.89-3-.51,1Z" transform="translate(-17.62 -18.27)"/><polygon class="cls-13" points="457.68 229.65 454.5 235.91 460.84 235.53 457.68 229.65 457.68 229.65"/><polygon class="cls-5" points="587.05 203.13 570.51 209.7 549.06 195.84 566.86 192.03 589.34 191.67 587.05 203.13 587.05 203.13"/><path class="cls-11" d="M571.92,227.63c14.8,5.81,21.22,17.16,24.3,35-.93,5.51-2.11,5.84-6,10.74-1,1.22-6.6,3.78-10.28,4.52l9.28,4.25c2.29-.46,5.58-2.62,8.33-5.45,1.85-1.91,5.86-6.85,6.94-10.22-.12-1.06,0-5.95-.06-8.28a30.29,30.29,0,0,1,2.73-2l.88,14.71-7.87,11,12.9-.28c1.22-3.13,3.49-7.32,4.78-11.22A93.54,93.54,0,0,0,620,256.67c-4.09-12.75-9.59-22.47-17.81-30.14-5.21-4.84-14.23-9.78-24.81-13.18-2.76.52-6.85,1.58-10.63,2.65l-5,8.74a31.58,31.58,0,0,1,10.23,2.89ZM588.1,214c18.7,5.66,33.16,26.23,36.5,44.64.1,2.75-1,5.59-1.43,8.52a46.12,46.12,0,0,1-2.8,9.59c3.15-.77,6.37-1.32,9.55-2.33a.77.77,0,0,0,.13-.12c4.24-6.32,7-21.94,8.13-35.89A44.73,44.73,0,0,0,603,211.06a19,19,0,0,0-3.45-.16c-4.4,1.06-6.64,1.85-11.49,3.09Z" transform="translate(-17.62 -18.27)"/><path class="cls-5" d="M589.18,263.62c-.5,2.53-1,5.06-1.51,7.59-2.68,2.05-3.11,3.91-9.92,6.84l7,5.54,5.75.3-5.4-5.9c2.3-1.42,5.33-5.18,7.53-7.63l.73-8.19-4.23,1.45Z" transform="translate(-17.62 -18.27)"/><path class="cls-5" d="M578.42,231.1c-5.56-3.49-12-6.08-16.73-6.36l6.25-10.89-6.42,1.88c-1.83,3-4.89,7.65-7.63,11.53,9.56.14,13.81,2.28,18.59,4.37,1.11-.71,4.84.18,5.94-.53Z" transform="translate(-17.62 -18.27)"/></g><g id="Layer_3" data-name="Layer 3"><path class="cls-16" d="M880.46,18.34c99.4,0,180,80.58,180,180a180,180,0,0,1-180,180c-99.47,0-180-80.56-180-180a180,180,0,0,1,180-180Z" transform="translate(-17.62 -18.27)"/><polygon class="cls-5" points="782.07 91.66 788.29 110.86 808.48 110.8 792.11 122.68 798.39 141.88 782.07 129.94 765.77 141.88 772.05 122.68 755.67 110.8 775.86 110.86 782.07 91.66 782.07 91.66"/><path class="cls-5" d="M779.82,216.23c25.91,34.41-1.05,83.21,84.14,103.34-8.07-76.69,30.16-94.42,45.11-153.08C893.44,127.53,887,84.57,900,37.73c-16.67,7.45-31.44,19.88-43.69,39-41.79,68.26,17.85,126.18-.86,157.2-33.67,34.9-31-47.39-70.17-20.19-1.84.87-3.7,1.66-5.48,2.53Z" transform="translate(-17.62 -18.27)"/><path class="cls-5" d="M869,320.19c44.07,5.78,79.83-7.39,101.93-46.53,17.05-36.75,15.75-73.13,2-109.38-4.31,44.62-20.19,78.17-48.81,99.64,32.43-57.3,48.5-119.15-10.53-197.7,29.86,139.86-64.92,161-44.56,254Z" transform="translate(-17.62 -18.27)"/><path class="cls-2" d="M753.91,280.24l-4.12-6.58-7.63,4.73L740,274.82l16.86-10.53,2.22,3.52-6.4,4,4.12,6.59,6.4-4,2.22,3.57-16.93,10.59L746.28,285l7.63-4.74ZM758,286h0a11.21,11.21,0,0,1,6.52-3,8.32,8.32,0,0,1,4.87,1.17,9.81,9.81,0,0,1,2.89,2.4,11,11,0,0,1,1.85,3.2,8.72,8.72,0,0,1,.3,5,11.88,11.88,0,0,1-4,5.91,12.12,12.12,0,0,1-6.53,3,8.26,8.26,0,0,1-4.87-1.17,10.81,10.81,0,0,1-2.89-2.34,11.14,11.14,0,0,1-1.84-3.2,8.37,8.37,0,0,1-.31-5.05A12,12,0,0,1,758,286Zm2.71,3.2h0a7.83,7.83,0,0,0-3.14,5,5.21,5.21,0,0,0,1.29,3.63,4.77,4.77,0,0,0,3.33,1.79c1.72.18,3.57-.56,5.48-2.16s2.94-3.26,3.07-5a4.71,4.71,0,0,0-1.23-3.63,5.15,5.15,0,0,0-3.32-1.85c-1.79-.19-3.58.55-5.48,2.16Zm15.51-6h0l-.85,5.11-2.1-2.28.43-2.83-2.83.25-2.16-2.28,5.11-.5,2.4,2.53ZM755.88,302h0l-2.34,2.21-2.4-2.52,2.34-2.22,2.4,2.53Zm26.1-3.51h0l-14.16,14.16-2.89-3L779,295.62l3,2.9Zm-2.34,17.42h0l3.2,2.46a2.7,2.7,0,0,0-.68,2,4.48,4.48,0,0,0,2,3.14,7.13,7.13,0,0,0,2.52,1.35,2.18,2.18,0,0,0,2.34-.8,1.79,1.79,0,0,0,.25-1.91,10.15,10.15,0,0,0-1.54-2.33l-1.41-1.73a12.66,12.66,0,0,1-2.47-3.87,4.8,4.8,0,0,1,1.11-4.62,6,6,0,0,1,3.51-2.22c2-.37,4.06.31,6.34,2.09,2.09,1.67,3.26,3.57,3.38,5.6a6.06,6.06,0,0,1-1.22,4.25l-3.21-2.45a3.42,3.42,0,0,0,.62-1.86,4.2,4.2,0,0,0-2-3,5.14,5.14,0,0,0-2.16-1.05,2.07,2.07,0,0,0-2,.8,1.93,1.93,0,0,0-.44,1.67,5.43,5.43,0,0,0,.81,1.29l3.13,3.94a8.84,8.84,0,0,1,1.85,3.5,4.61,4.61,0,0,1-1,3.94,5.89,5.89,0,0,1-4.49,2.47,8.79,8.79,0,0,1-5.79-2.16c-2.52-2-3.88-4-4-6.16a6.21,6.21,0,0,1,1.42-4.36Zm27.14,3.2h0l-11.45,16.37-3.38-2.4,11.44-16.37,3.39,2.4Zm12.55,7.51h0l3.39,2-10,17.29-3.63-2.09.06-16.38L802,339.7l-3.38-1.91,10-17.3,3.82,2.22-.13,15.94,7-12ZM831.47,344h0l-7.21-2.9-3.38,8.31-3.88-1.6,7.51-18.46,3.87,1.53-2.83,7,7.21,2.89,2.83-7,3.87,1.6L832,353.85l-3.88-1.53,3.4-8.31Zm28.06-3.95h0l4.31.81-10.16,18.46-3.88-.68-3.14-20.86,4.37.8,1.61,15.64,6.89-14.17Zm9.54,1.18h0l-1.41,19.88-4.13-.31,1.35-19.88,4.19.31Zm17.6.05h0v3.51H876.14v4.25h9.73v3.45h-9.73v5.17h11.08v3.57H872V341.29Zm-6.53-5.9h0l3.21,4-3.08.07-1.85-2.22-1.72,2.28-3.08.06,3.08-4.12,3.44-.06Zm22.78,5.05h0l3.88-.38L908.52,360l-4.12.37-9.35-13.49L896.21,361l-3.88.37-1.72-19.88,4.38-.37,9.1,13.12-1.17-13.79Zm23.57-5.6h0l4.19-1.3L930,354.66l-3.75,1.1L914,338.65l4.24-1.29,8.5,13.23-.25-15.75Zm9.12-4.07h0l7.44,18.53-3.81,1.53-7.51-18.46,3.88-1.6Zm15-7.51h0l1.66,3.08-9.35,5,2,3.69,8.55-4.56,1.67,3.08-8.63,4.56,2.47,4.61,9.72-5.22,1.67,3.13-13.36,7.14-9.36-17.6,12.93-6.9Zm-9.17-1.79h0l4.81,1.85-2.66,1.6-2.71-1-.31,2.83-2.7,1.6.61-5.11,3-1.79Zm14.22,23.76h0l1.66,2.77-3,1.79-1.66-2.71,3-1.85Zm6.71-25.79h0L972,332.81l-3.39,2.39L959,321.91l-4.86,3.57-2.1-2.83,13.12-9.55,2.09,2.84-4.86,3.5ZM981,299.13h0l2.83-2.65,13.6,14.6-3,2.82L978.81,309l9.66,10.4-2.83,2.72L972,307.56l3.26-3,15.2,4.73L981,299.13Zm18.89,2.77h0l2.28,3.7L999.37,309l-10.72-18.34,3.14-3.7,19.76,7.51-2.89,3.45-4-1.66-4.74,5.66ZM998,298.83h0l3.26-3.94-7.63-3.14,4.37,7.08Zm8.19-33.73h0l16.92,10.58-2.09,3.26-14.16-8.79,12.14,12-2.16,3.51-16.07-5.78,14.09,8.92-2,3.27-16.92-10.59,3.2-5.11,15.27,5.29-11.45-11.45,3.26-5.1Z" transform="translate(-17.62 -18.27)"/></g></svg>